<svg width="119" height="124" viewBox="0 0 119 124" fill="none" xmlns="http://www.w3.org/2000/svg">
<path d="M48.5808 5.24054C55.3123 -2.33687 64.4647 -1.13085 70.3214 5.24054L73.8929 9.37566C75.1295 10.7211 76.9192 11.4188 78.7401 11.2655L85.09 9.37566C93.7448 7.52028 101.61 13.9772 101.61 24.0061V27.7841C101.793 29.8464 103.595 31.2445 105.455 32.1531L111.193 34.5501C119.491 38.6032 121.565 48.2195 115.52 56.2909L113.803 58.5576C112.262 60.6401 112.579 63.3732 114.112 65.461L115.829 67.8652C122.08 75.5586 118.555 86.1135 109.726 89.801L104.787 91.8637C102.927 92.6405 102.198 93.9744 101.851 95.9597L101.507 102.417C100.305 111.278 92.4348 115.28 86.12 114.386L78.5986 112.377C76.7922 112.121 74.5457 112.72 73.3438 114.609L70.6304 118.319C63.8985 125.909 54.8129 124.647 50.2294 120.207L45.2238 114.146C43.9133 112.876 42.2612 111.793 40.2834 112.539L32.7131 114.609C26.4631 115.494 19.1036 110.69 17.9257 104.488L17.0516 95.5135C16.6968 93.6451 15.4649 92.062 13.7415 91.2588L8.43091 89.434C0.445059 85.7126 -2.22968 76.7034 2.35561 69.1802L5.34877 65.0407C6.551 63.0681 6.49385 60.5759 5.20242 58.6605L2.96998 55.5009C-3.34944 46.5023 1.01978 36.4446 10.3842 33.4292L12.4495 32.7642C14.7291 32.0302 16.931 30.1371 17.1205 27.7498L17.5804 21.9545C18.3269 12.5477 26.9106 7.14994 35.939 9.89463L38.8608 10.7829C41.6774 11.8819 43.8839 10.946 45.4208 9.27169L48.5808 5.24054Z" fill="url(#paint0_linear_12_776)"/>
<path d="M48.5808 5.24054C55.3123 -2.33687 64.4647 -1.13085 70.3214 5.24054L73.8929 9.37566C75.1295 10.7211 76.9192 11.4188 78.7401 11.2655L85.09 9.37566C93.7448 7.52028 101.61 13.9772 101.61 24.0061V27.7841C101.793 29.8464 103.595 31.2445 105.455 32.1531L111.193 34.5501C119.491 38.6032 121.565 48.2195 115.52 56.2909L113.803 58.5576C112.262 60.6401 112.579 63.3732 114.112 65.461L115.829 67.8652C122.08 75.5586 118.555 86.1135 109.726 89.801L104.787 91.8637C102.927 92.6405 102.198 93.9744 101.851 95.9597L101.507 102.417C100.305 111.278 92.4348 115.28 86.12 114.386L78.5986 112.377C76.7922 112.121 74.5457 112.72 73.3438 114.609L70.6304 118.319C63.8985 125.909 54.8129 124.647 50.2294 120.207L45.2238 114.146C43.9133 112.876 42.2612 111.793 40.2834 112.539L32.7131 114.609C26.4631 115.494 19.1036 110.69 17.9257 104.488L17.0516 95.5135C16.6968 93.6451 15.4649 92.062 13.7415 91.2588L8.43091 89.434C0.445059 85.7126 -2.22968 76.7034 2.35561 69.1802L5.34877 65.0407C6.551 63.0681 6.49385 60.5759 5.20242 58.6605L2.96998 55.5009C-3.34944 46.5023 1.01978 36.4446 10.3842 33.4292L12.4495 32.7642C14.7291 32.0302 16.931 30.1371 17.1205 27.7498L17.5804 21.9545C18.3269 12.5477 26.9106 7.14994 35.939 9.89463L38.8608 10.7829C41.6774 11.8819 43.8839 10.946 45.4208 9.27169L48.5808 5.24054Z" fill="url(#paint1_radial_12_776)"/>
<path d="M48.5808 5.24054C55.3123 -2.33687 64.4647 -1.13085 70.3214 5.24054L73.8929 9.37566C75.1295 10.7211 76.9192 11.4188 78.7401 11.2655L85.09 9.37566C93.7448 7.52028 101.61 13.9772 101.61 24.0061V27.7841C101.793 29.8464 103.595 31.2445 105.455 32.1531L111.193 34.5501C119.491 38.6032 121.565 48.2195 115.52 56.2909L113.803 58.5576C112.262 60.6401 112.579 63.3732 114.112 65.461L115.829 67.8652C122.08 75.5586 118.555 86.1135 109.726 89.801L104.787 91.8637C102.927 92.6405 102.198 93.9744 101.851 95.9597L101.507 102.417C100.305 111.278 92.4348 115.28 86.12 114.386L78.5986 112.377C76.7922 112.121 74.5457 112.72 73.3438 114.609L70.6304 118.319C63.8985 125.909 54.8129 124.647 50.2294 120.207L45.2238 114.146C43.9133 112.876 42.2612 111.793 40.2834 112.539L32.7131 114.609C26.4631 115.494 19.1036 110.69 17.9257 104.488L17.0516 95.5135C16.6968 93.6451 15.4649 92.062 13.7415 91.2588L8.43091 89.434C0.445059 85.7126 -2.22968 76.7034 2.35561 69.1802L5.34877 65.0407C6.551 63.0681 6.49385 60.5759 5.20242 58.6605L2.96998 55.5009C-3.34944 46.5023 1.01978 36.4446 10.3842 33.4292L12.4495 32.7642C14.7291 32.0302 16.931 30.1371 17.1205 27.7498L17.5804 21.9545C18.3269 12.5477 26.9106 7.14994 35.939 9.89463L38.8608 10.7829C41.6774 11.8819 43.8839 10.946 45.4208 9.27169L48.5808 5.24054Z" fill="url(#paint2_radial_12_776)"/>
<path d="M48.5808 5.24054C55.3123 -2.33687 64.4647 -1.13085 70.3214 5.24054L73.8929 9.37566C75.1295 10.7211 76.9192 11.4188 78.7401 11.2655L85.09 9.37566C93.7448 7.52028 101.61 13.9772 101.61 24.0061V27.7841C101.793 29.8464 103.595 31.2445 105.455 32.1531L111.193 34.5501C119.491 38.6032 121.565 48.2195 115.52 56.2909L113.803 58.5576C112.262 60.6401 112.579 63.3732 114.112 65.461L115.829 67.8652C122.08 75.5586 118.555 86.1135 109.726 89.801L104.787 91.8637C102.927 92.6405 102.198 93.9744 101.851 95.9597L101.507 102.417C100.305 111.278 92.4348 115.28 86.12 114.386L78.5986 112.377C76.7922 112.121 74.5457 112.72 73.3438 114.609L70.6304 118.319C63.8985 125.909 54.8129 124.647 50.2294 120.207L45.2238 114.146C43.9133 112.876 42.2612 111.793 40.2834 112.539L32.7131 114.609C26.4631 115.494 19.1036 110.69 17.9257 104.488L17.0516 95.5135C16.6968 93.6451 15.4649 92.062 13.7415 91.2588L8.43091 89.434C0.445059 85.7126 -2.22968 76.7034 2.35561 69.1802L5.34877 65.0407C6.551 63.0681 6.49385 60.5759 5.20242 58.6605L2.96998 55.5009C-3.34944 46.5023 1.01978 36.4446 10.3842 33.4292L12.4495 32.7642C14.7291 32.0302 16.931 30.1371 17.1205 27.7498L17.5804 21.9545C18.3269 12.5477 26.9106 7.14994 35.939 9.89463L38.8608 10.7829C41.6774 11.8819 43.8839 10.946 45.4208 9.27169L48.5808 5.24054Z" fill="url(#paint3_radial_12_776)"/>
<path d="M48.5808 5.24054C55.3123 -2.33687 64.4647 -1.13085 70.3214 5.24054L73.8929 9.37566C75.1295 10.7211 76.9192 11.4188 78.7401 11.2655L85.09 9.37566C93.7448 7.52028 101.61 13.9772 101.61 24.0061V27.7841C101.793 29.8464 103.595 31.2445 105.455 32.1531L111.193 34.5501C119.491 38.6032 121.565 48.2195 115.52 56.2909L113.803 58.5576C112.262 60.6401 112.579 63.3732 114.112 65.461L115.829 67.8652C122.08 75.5586 118.555 86.1135 109.726 89.801L104.787 91.8637C102.927 92.6405 102.198 93.9744 101.851 95.9597L101.507 102.417C100.305 111.278 92.4348 115.28 86.12 114.386L78.5986 112.377C76.7922 112.121 74.5457 112.72 73.3438 114.609L70.6304 118.319C63.8985 125.909 54.8129 124.647 50.2294 120.207L45.2238 114.146C43.9133 112.876 42.2612 111.793 40.2834 112.539L32.7131 114.609C26.4631 115.494 19.1036 110.69 17.9257 104.488L17.0516 95.5135C16.6968 93.6451 15.4649 92.062 13.7415 91.2588L8.43091 89.434C0.445059 85.7126 -2.22968 76.7034 2.35561 69.1802L5.34877 65.0407C6.551 63.0681 6.49385 60.5759 5.20242 58.6605L2.96998 55.5009C-3.34944 46.5023 1.01978 36.4446 10.3842 33.4292L12.4495 32.7642C14.7291 32.0302 16.931 30.1371 17.1205 27.7498L17.5804 21.9545C18.3269 12.5477 26.9106 7.14994 35.939 9.89463L38.8608 10.7829C41.6774 11.8819 43.8839 10.946 45.4208 9.27169L48.5808 5.24054Z" fill="url(#paint4_radial_12_776)"/>
<path d="M48.5808 5.24054C55.3123 -2.33687 64.4647 -1.13085 70.3214 5.24054L73.8929 9.37566C75.1295 10.7211 76.9192 11.4188 78.7401 11.2655L85.09 9.37566C93.7448 7.52028 101.61 13.9772 101.61 24.0061V27.7841C101.793 29.8464 103.595 31.2445 105.455 32.1531L111.193 34.5501C119.491 38.6032 121.565 48.2195 115.52 56.2909L113.803 58.5576C112.262 60.6401 112.579 63.3732 114.112 65.461L115.829 67.8652C122.08 75.5586 118.555 86.1135 109.726 89.801L104.787 91.8637C102.927 92.6405 102.198 93.9744 101.851 95.9597L101.507 102.417C100.305 111.278 92.4348 115.28 86.12 114.386L78.5986 112.377C76.7922 112.121 74.5457 112.72 73.3438 114.609L70.6304 118.319C63.8985 125.909 54.8129 124.647 50.2294 120.207L45.2238 114.146C43.9133 112.876 42.2612 111.793 40.2834 112.539L32.7131 114.609C26.4631 115.494 19.1036 110.69 17.9257 104.488L17.0516 95.5135C16.6968 93.6451 15.4649 92.062 13.7415 91.2588L8.43091 89.434C0.445059 85.7126 -2.22968 76.7034 2.35561 69.1802L5.34877 65.0407C6.551 63.0681 6.49385 60.5759 5.20242 58.6605L2.96998 55.5009C-3.34944 46.5023 1.01978 36.4446 10.3842 33.4292L12.4495 32.7642C14.7291 32.0302 16.931 30.1371 17.1205 27.7498L17.5804 21.9545C18.3269 12.5477 26.9106 7.14994 35.939 9.89463L38.8608 10.7829C41.6774 11.8819 43.8839 10.946 45.4208 9.27169L48.5808 5.24054Z" fill="url(#paint5_radial_12_776)"/>
<path d="M48.5808 5.24054C55.3123 -2.33687 64.4647 -1.13085 70.3214 5.24054L73.8929 9.37566C75.1295 10.7211 76.9192 11.4188 78.7401 11.2655L85.09 9.37566C93.7448 7.52028 101.61 13.9772 101.61 24.0061V27.7841C101.793 29.8464 103.595 31.2445 105.455 32.1531L111.193 34.5501C119.491 38.6032 121.565 48.2195 115.52 56.2909L113.803 58.5576C112.262 60.6401 112.579 63.3732 114.112 65.461L115.829 67.8652C122.08 75.5586 118.555 86.1135 109.726 89.801L104.787 91.8637C102.927 92.6405 102.198 93.9744 101.851 95.9597L101.507 102.417C100.305 111.278 92.4348 115.28 86.12 114.386L78.5986 112.377C76.7922 112.121 74.5457 112.72 73.3438 114.609L70.6304 118.319C63.8985 125.909 54.8129 124.647 50.2294 120.207L45.2238 114.146C43.9133 112.876 42.2612 111.793 40.2834 112.539L32.7131 114.609C26.4631 115.494 19.1036 110.69 17.9257 104.488L17.0516 95.5135C16.6968 93.6451 15.4649 92.062 13.7415 91.2588L8.43091 89.434C0.445059 85.7126 -2.22968 76.7034 2.35561 69.1802L5.34877 65.0407C6.551 63.0681 6.49385 60.5759 5.20242 58.6605L2.96998 55.5009C-3.34944 46.5023 1.01978 36.4446 10.3842 33.4292L12.4495 32.7642C14.7291 32.0302 16.931 30.1371 17.1205 27.7498L17.5804 21.9545C18.3269 12.5477 26.9106 7.14994 35.939 9.89463L38.8608 10.7829C41.6774 11.8819 43.8839 10.946 45.4208 9.27169L48.5808 5.24054Z" fill="url(#paint6_radial_12_776)"/>
<path d="M48.5808 5.24054C55.3123 -2.33687 64.4647 -1.13085 70.3214 5.24054L73.8929 9.37566C75.1295 10.7211 76.9192 11.4188 78.7401 11.2655L85.09 9.37566C93.7448 7.52028 101.61 13.9772 101.61 24.0061V27.7841C101.793 29.8464 103.595 31.2445 105.455 32.1531L111.193 34.5501C119.491 38.6032 121.565 48.2195 115.52 56.2909L113.803 58.5576C112.262 60.6401 112.579 63.3732 114.112 65.461L115.829 67.8652C122.08 75.5586 118.555 86.1135 109.726 89.801L104.787 91.8637C102.927 92.6405 102.198 93.9744 101.851 95.9597L101.507 102.417C100.305 111.278 92.4348 115.28 86.12 114.386L78.5986 112.377C76.7922 112.121 74.5457 112.72 73.3438 114.609L70.6304 118.319C63.8985 125.909 54.8129 124.647 50.2294 120.207L45.2238 114.146C43.9133 112.876 42.2612 111.793 40.2834 112.539L32.7131 114.609C26.4631 115.494 19.1036 110.69 17.9257 104.488L17.0516 95.5135C16.6968 93.6451 15.4649 92.062 13.7415 91.2588L8.43091 89.434C0.445059 85.7126 -2.22968 76.7034 2.35561 69.1802L5.34877 65.0407C6.551 63.0681 6.49385 60.5759 5.20242 58.6605L2.96998 55.5009C-3.34944 46.5023 1.01978 36.4446 10.3842 33.4292L12.4495 32.7642C14.7291 32.0302 16.931 30.1371 17.1205 27.7498L17.5804 21.9545C18.3269 12.5477 26.9106 7.14994 35.939 9.89463L38.8608 10.7829C41.6774 11.8819 43.8839 10.946 45.4208 9.27169L48.5808 5.24054Z" fill="url(#paint7_radial_12_776)"/>
<path d="M48.5808 5.24054C55.3123 -2.33687 64.4647 -1.13085 70.3214 5.24054L73.8929 9.37566C75.1295 10.7211 76.9192 11.4188 78.7401 11.2655L85.09 9.37566C93.7448 7.52028 101.61 13.9772 101.61 24.0061V27.7841C101.793 29.8464 103.595 31.2445 105.455 32.1531L111.193 34.5501C119.491 38.6032 121.565 48.2195 115.52 56.2909L113.803 58.5576C112.262 60.6401 112.579 63.3732 114.112 65.461L115.829 67.8652C122.08 75.5586 118.555 86.1135 109.726 89.801L104.787 91.8637C102.927 92.6405 102.198 93.9744 101.851 95.9597L101.507 102.417C100.305 111.278 92.4348 115.28 86.12 114.386L78.5986 112.377C76.7922 112.121 74.5457 112.72 73.3438 114.609L70.6304 118.319C63.8985 125.909 54.8129 124.647 50.2294 120.207L45.2238 114.146C43.9133 112.876 42.2612 111.793 40.2834 112.539L32.7131 114.609C26.4631 115.494 19.1036 110.69 17.9257 104.488L17.0516 95.5135C16.6968 93.6451 15.4649 92.062 13.7415 91.2588L8.43091 89.434C0.445059 85.7126 -2.22968 76.7034 2.35561 69.1802L5.34877 65.0407C6.551 63.0681 6.49385 60.5759 5.20242 58.6605L2.96998 55.5009C-3.34944 46.5023 1.01978 36.4446 10.3842 33.4292L12.4495 32.7642C14.7291 32.0302 16.931 30.1371 17.1205 27.7498L17.5804 21.9545C18.3269 12.5477 26.9106 7.14994 35.939 9.89463L38.8608 10.7829C41.6774 11.8819 43.8839 10.946 45.4208 9.27169L48.5808 5.24054Z" fill="url(#paint8_radial_12_776)"/>
<path d="M48.5808 5.24054C55.3123 -2.33687 64.4647 -1.13085 70.3214 5.24054L73.8929 9.37566C75.1295 10.7211 76.9192 11.4188 78.7401 11.2655L85.09 9.37566C93.7448 7.52028 101.61 13.9772 101.61 24.0061V27.7841C101.793 29.8464 103.595 31.2445 105.455 32.1531L111.193 34.5501C119.491 38.6032 121.565 48.2195 115.52 56.2909L113.803 58.5576C112.262 60.6401 112.579 63.3732 114.112 65.461L115.829 67.8652C122.08 75.5586 118.555 86.1135 109.726 89.801L104.787 91.8637C102.927 92.6405 102.198 93.9744 101.851 95.9597L101.507 102.417C100.305 111.278 92.4348 115.28 86.12 114.386L78.5986 112.377C76.7922 112.121 74.5457 112.72 73.3438 114.609L70.6304 118.319C63.8985 125.909 54.8129 124.647 50.2294 120.207L45.2238 114.146C43.9133 112.876 42.2612 111.793 40.2834 112.539L32.7131 114.609C26.4631 115.494 19.1036 110.69 17.9257 104.488L17.0516 95.5135C16.6968 93.6451 15.4649 92.062 13.7415 91.2588L8.43091 89.434C0.445059 85.7126 -2.22968 76.7034 2.35561 69.1802L5.34877 65.0407C6.551 63.0681 6.49385 60.5759 5.20242 58.6605L2.96998 55.5009C-3.34944 46.5023 1.01978 36.4446 10.3842 33.4292L12.4495 32.7642C14.7291 32.0302 16.931 30.1371 17.1205 27.7498L17.5804 21.9545C18.3269 12.5477 26.9106 7.14994 35.939 9.89463L38.8608 10.7829C41.6774 11.8819 43.8839 10.946 45.4208 9.27169L48.5808 5.24054Z" fill="url(#paint9_radial_12_776)"/>
<path d="M59.5003 109.005C85.5839 109.005 106.728 87.8597 106.728 61.7765C106.728 35.6929 85.5839 14.548 59.5003 14.548C33.4168 14.548 12.272 35.6929 12.272 61.7765C12.272 87.8597 33.4168 109.005 59.5003 109.005Z" fill="url(#paint10_radial_12_776)"/>
<defs>
<linearGradient id="paint0_linear_12_776" x1="96.1808" y1="20.7853" x2="28.6989" y2="106.883" gradientUnits="userSpaceOnUse">
<stop stop-color="#FC8B23"/>
<stop offset="1" stop-color="#E67639"/>
</linearGradient>
<radialGradient id="paint1_radial_12_776" cx="0" cy="0" r="1" gradientUnits="userSpaceOnUse" gradientTransform="translate(70.8617 5.70816) rotate(138.155) scale(16.6117 14.6567)">
<stop offset="0.300161" stop-color="#FFA13A"/>
<stop offset="1" stop-color="#FFA13A" stop-opacity="0"/>
</radialGradient>
<radialGradient id="paint2_radial_12_776" cx="0" cy="0" r="1" gradientUnits="userSpaceOnUse" gradientTransform="translate(27.6417 0.464049) rotate(67.8105) scale(26.4087 23.3007)">
<stop offset="0.300161" stop-color="#FF942A"/>
<stop offset="1" stop-color="#FF942A" stop-opacity="0"/>
</radialGradient>
<radialGradient id="paint3_radial_12_776" cx="0" cy="0" r="1" gradientUnits="userSpaceOnUse" gradientTransform="translate(98.5666 25.1017) rotate(-164.745) scale(10.5295 14.5795)">
<stop offset="0.300161" stop-color="#FFA13D"/>
<stop offset="1" stop-color="#FFA13D" stop-opacity="0"/>
</radialGradient>
<radialGradient id="paint4_radial_12_776" cx="0" cy="0" r="1" gradientUnits="userSpaceOnUse" gradientTransform="translate(119.807 40.432) rotate(154.195) scale(18.6693 13.7887)">
<stop offset="0.300161" stop-color="#FFA13D"/>
<stop offset="1" stop-color="#FFA13D" stop-opacity="0"/>
</radialGradient>
<radialGradient id="paint5_radial_12_776" cx="0" cy="0" r="1" gradientUnits="userSpaceOnUse" gradientTransform="translate(123.87 72.0153) rotate(-173.379) scale(20.8253 11.7358)">
<stop offset="0.300161" stop-color="#FFA13D"/>
<stop offset="1" stop-color="#FFA13D" stop-opacity="0"/>
</radialGradient>
<radialGradient id="paint6_radial_12_776" cx="0" cy="0" r="1" gradientUnits="userSpaceOnUse" gradientTransform="translate(105.216 96.2112) rotate(-43.9639) scale(18.8902 18.1985)">
<stop stop-color="#E0762A"/>
<stop offset="1" stop-color="#E0762A" stop-opacity="0"/>
</radialGradient>
<radialGradient id="paint7_radial_12_776" cx="0" cy="0" r="1" gradientUnits="userSpaceOnUse" gradientTransform="translate(17.6679 91.7785) rotate(-127.747) scale(14.4822 13.9519)">
<stop stop-color="#E0762A"/>
<stop offset="1" stop-color="#E0762A" stop-opacity="0"/>
</radialGradient>
<radialGradient id="paint8_radial_12_776" cx="0" cy="0" r="1" gradientUnits="userSpaceOnUse" gradientTransform="translate(-2.09498 42.8328) rotate(25.2777) scale(14.7066 17.775)">
<stop stop-color="#F0851D"/>
<stop offset="1" stop-color="#F0851D" stop-opacity="0"/>
</radialGradient>
<radialGradient id="paint9_radial_12_776" cx="0" cy="0" r="1" gradientUnits="userSpaceOnUse" gradientTransform="translate(85.6914 117.185) rotate(-142.487) scale(17.1463 16.176)">
<stop offset="0.336586" stop-color="#E3745B"/>
<stop offset="1" stop-color="#E3745B" stop-opacity="0"/>
</radialGradient>
<radialGradient id="paint10_radial_12_776" cx="0" cy="0" r="1" gradientUnits="userSpaceOnUse" gradientTransform="translate(86.3014 34.415) rotate(117.739) scale(84.275 104.072)">
<stop offset="0.17178" stop-color="#FFD13D"/>
<stop offset="1" stop-color="#D89A29"/>
</radialGradient>
</defs>
</svg>
