<svg width="40" height="40" viewBox="0 0 40 40" fill="none" xmlns="http://www.w3.org/2000/svg">
<path d="M36.6667 20C36.6667 29.2048 29.2048 36.6667 20 36.6667M36.6667 20C36.6667 10.7953 29.2048 3.33337 20 3.33337M36.6667 20H3.33337M20 36.6667C10.7953 36.6667 3.33337 29.2048 3.33337 20M20 36.6667C24.1688 32.1028 26.538 26.18 26.6667 20C26.538 13.8201 24.1688 7.8973 20 3.33337M20 36.6667C15.8312 32.1028 13.4621 26.18 13.3334 20C13.4621 13.8201 15.8312 7.8973 20 3.33337M3.33337 20C3.33337 10.7953 10.7953 3.33337 20 3.33337" stroke="#1E1E1E" stroke-width="4" stroke-linecap="round" stroke-linejoin="round"/>
</svg>
