<svg width="40" height="40" viewBox="0 0 40 40" fill="none" xmlns="http://www.w3.org/2000/svg">
<path d="M15.9834 7.65005C16.3706 7.26057 16.848 6.97279 17.3732 6.81229C17.8984 6.65178 18.4551 6.62353 18.9938 6.73004C19.5326 6.83655 20.0367 7.07452 20.4613 7.42279C20.8859 7.77107 21.2179 8.21887 21.4278 8.72637C21.6376 9.23388 21.7188 9.78537 21.6642 10.3318C21.6095 10.8783 21.4207 11.4028 21.1145 11.8587C20.8083 12.3145 20.3942 12.6877 19.909 12.945C19.4238 13.2023 18.8825 13.3357 18.3334 13.3334H3.33337M20.9834 32.3501C21.3706 32.7395 21.848 33.0273 22.3732 33.1878C22.8984 33.3483 23.4551 33.3766 23.9938 33.2701C24.5326 33.1636 25.0367 32.9256 25.4613 32.5773C25.8859 32.229 26.2179 31.7812 26.4278 31.2737C26.6376 30.7662 26.7188 30.2147 26.6642 29.6683C26.6095 29.1218 26.4207 28.5973 26.1145 28.1415C25.8083 27.6856 25.3942 27.3124 24.909 27.0551C24.4238 26.7978 23.8825 26.6644 23.3334 26.6667H3.33337M29.55 12.8834C30.0348 12.3999 30.6312 12.0432 31.2866 11.8451C31.942 11.6469 32.6361 11.6133 33.3075 11.7472C33.979 11.8811 34.6071 12.1784 35.1363 12.6128C35.6655 13.0473 36.0795 13.6054 36.3417 14.2379C36.6038 14.8704 36.7061 15.5577 36.6395 16.2391C36.5728 16.9205 36.3392 17.575 35.9594 18.1447C35.5796 18.7144 35.0653 19.1817 34.4619 19.5053C33.8585 19.8289 33.1847 19.9988 32.5 20.0001H3.33337" stroke="#1E1E1E" stroke-width="4" stroke-linecap="round" stroke-linejoin="round"/>
</svg>
